# xmcd CD database file
#
# Track frame offsets:
#	150
#	14522
#	29900
#	44600
#	59954
#	73810
#	98292
#	124384
#	138491
#	149778
#	165198
#	179972
#	194583
#	209764
#	224504
#	238903
#	253810
#	266419
#	278714
#	291856
#	304773
#	318863
#
# Disc length: 4429 seconds
#
# Revision: 0
# Processed by: cddbd v1.5.1PL0 Copyright (c) Steve Scherf et al.
# Submitted via: CDex 1.50beta9
#
DISCID=7b114b16
DTITLE=Lionel Hampton - Hamp's Boogie Woogie No.1 - CD2
DYEAR=1900
DGENRE=Jazz
TTITLE0=Flying Home No.1
TTITLE1=In The Bag
TTITLE2=Hamp's Boogie Woogie No. 1
TTITLE3=Flying Home No. 2
TTITLE4=Loose Wig
TTITLE5=Vige Boogie
TTITLE6=Screamin' Boogie
TTITLE7=Doublin' With Dublin
TTITLE8=Ribs And Hot Sauce
TTITLE9=Blow The Blues
TTITLE10=Two Finger Boogie
TTITLE11=Beulah's Boogie
TTITLE12=Playboy
TTITLE13=Punch And Judy
TTITLE14=Pinetop's Boogie Woogie
TTITLE15=Hey! Ba-Ba-Re-Bop
TTITLE16=Slide Hamp Slide
TTITLE17=On The Sunny Side Of The Street
TTITLE18=Rockin' Rhythm - Part 1
TTITLE19=Rockin' In Rhythm - Part 2
TTITLE20=Empty Glass
TTITLE21=Hamp's Walking Boogie
EXTD=
EXTT0=
EXTT1=
EXTT2=
EXTT3=
EXTT4=
EXTT5=
EXTT6=
EXTT7=
EXTT8=
EXTT9=
EXTT10=
EXTT11=
EXTT12=
EXTT13=
EXTT14=
EXTT15=
EXTT16=
EXTT17=
EXTT18=
EXTT19=
EXTT20=
EXTT21=
PLAYORDER=
